<?xml version="1.0" encoding="UTF-8"?>
<svg width="17px" height="15px" viewBox="0 0 17 15" version="1.1" xmlns="http://www.w3.org/2000/svg" xmlns:xlink="http://www.w3.org/1999/xlink">
    <!-- Generator: Sketch 55.2 (78181) - https://sketchapp.com -->
    <title>ic_payment_position_n@2x</title>
    <desc>Created with Sketch.</desc>
    <g id="HAPPay" stroke="none" stroke-width="1" fill="none" fill-rule="evenodd">
        <g id="扫码" transform="translate(-40.000000, -425.000000)" fill="#7DC271" fill-rule="nonzero">
            <g id="ic_payment_position_n" transform="translate(40.000000, 425.000000)">
                <path d="M10.0789282,8.40321429 L10.0789282,9.85714286 C10.0782626,11.2384174 10.9415534,12.4726279 12.2392857,12.9457143 C13.5337808,12.4699013 14.3933552,11.2363136 14.3914318,9.85714286 L14.3914318,8.41142857 L12.2392857,7.45035714 L10.0789282,8.40321429 Z M12.2310714,14.4242857 C12.1284468,14.4233063 12.0263465,14.409509 11.9271429,14.3832143 C9.9457243,13.7688449 8.5986333,11.9315995 8.60851681,9.85714286 L8.60851681,8.15678571 C8.61033331,7.72661059 8.86437251,7.33751257 9.2575,7.16285714 L11.7875,6.02928571 C12.0724697,5.9024166 12.3978875,5.9024166 12.6828571,6.02928571 L15.2210714,7.15464286 C15.6141989,7.32929828 15.8682381,7.71839631 15.8700508,8.14857143 L15.8700508,9.85714286 C15.8796077,11.9403977 14.525483,13.7848089 12.535,14.3996429 C12.4381316,14.4225803 12.3388266,14.4336142 12.2392857,14.4325767 L12.2310714,14.4242857 Z" id="形状"></path>
                <path d="M6.45642857,11.7218079 L1.52785714,11.7218079 C1.12340145,11.723972 0.734760727,11.5648329 0.447993341,11.2796073 C0.161225956,10.9943816 0,10.6066045 0,10.2021429 L0,1.51964286 C0,1.11660851 0.16010477,0.730081406 0.445093088,0.445093088 C0.730081406,0.16010477 1.11660851,0 1.51964286,0 L14.6625,0 C15.5017756,0 16.1821429,0.680367282 16.1821429,1.51964286 L16.1821429,5.62678571 C16.1821429,6.01239882 15.8695417,6.325 15.4839286,6.325 C15.0983155,6.325 14.7857143,6.01239882 14.7857143,5.62678571 L14.7857143,1.51964286 C14.7857143,1.45159349 14.7305494,1.39642857 14.6625,1.39642857 L1.51964286,1.39642857 C1.45159349,1.39642857 1.39642857,1.45159349 1.39642857,1.51964286 L1.39642857,10.2021429 C1.39642857,10.2701922 1.45159349,10.3253571 1.51964286,10.3253571 L6.44821429,10.3253571 C6.83382739,10.3253571 7.14642857,10.6379583 7.14642857,11.0235714 C7.14642857,11.4091845 6.83382739,11.7218079 6.44821429,11.7218079 L6.45642857,11.7218079 Z" id="路径"></path>
                <rect id="矩形" x="0.657142857" y="3.18714286" width="14.7939286" height="1.39642857"></rect>
            </g>
        </g>
    </g>
</svg>