<?xml version="1.0" encoding="UTF-8"?>
<svg width="20px" height="20px" viewBox="0 0 20 20" version="1.1" xmlns="http://www.w3.org/2000/svg" xmlns:xlink="http://www.w3.org/1999/xlink">
    <!-- Generator: Sketch 55.2 (78181) - https://sketchapp.com -->
    <title>ic_weichat_n@1x</title>
    <desc>Created with Sketch.</desc>
    <g id="HAPPay" stroke="none" stroke-width="1" fill="none" fill-rule="evenodd">
        <g id="支付弹框" transform="translate(-40.000000, -494.000000)" fill="#50B674" fill-rule="nonzero">
            <g id="ic_weichat_n" transform="translate(40.000000, 494.000000)">
                <path d="M6.17647059,7.44485567 C6.17522038,7.68213947 6.29753838,7.90195545 6.49706444,8.0209731 C6.6965905,8.13999075 6.94278101,8.13999075 7.14230707,8.0209731 C7.34183313,7.90195545 7.46415113,7.68213947 7.46290092,7.44485567 C7.46415113,7.20757188 7.34183313,6.9877559 7.14230707,6.86873825 C6.94278101,6.7497206 6.6965905,6.7497206 6.49706444,6.86873825 C6.29753838,6.9877559 6.17522038,7.20757188 6.17647059,7.44485567 L6.17647059,7.44485567 Z M9.05305082,7.42647165 C9.05305082,7.79195479 9.34102804,8.08823741 9.69626594,8.08823741 C10.0515038,8.08823741 10.3394811,7.79195479 10.3394811,7.42647165 C10.3394811,7.06098851 10.0515038,6.76470588 9.69626594,6.76470588 C9.34102804,6.76470588 9.05305082,7.06098851 9.05305082,7.42647165 L9.05305082,7.42647165 Z M10.6610694,10.3860237 C10.6600284,10.5509232 10.7449325,10.7037614 10.8835641,10.7865248 C11.0221957,10.8692882 11.1933007,10.8692882 11.3319323,10.7865248 C11.4705639,10.7037614 11.555468,10.5509232 11.5544174,10.3860237 C11.555468,10.2211241 11.4705639,10.068286 11.3319323,9.98552261 C11.1933007,9.90275921 11.0221957,9.90275921 10.8835641,9.98552261 C10.7449325,10.068286 10.6600284,10.2211241 10.6610694,10.3860237 Z M12.9301719,10.4227917 C12.9301719,10.6766004 13.1301568,10.8823529 13.3768506,10.8823529 C13.6235445,10.8823529 13.8235294,10.6766004 13.8235294,10.4227917 C13.8235294,10.1689831 13.6235445,9.96323053 13.3768506,9.96323053 C13.1301568,9.96323053 12.9301719,10.1689831 12.9301719,10.4227917 Z" id="Shape"></path>
                <path d="M10,0 C4.47273437,0 0,4.47273437 0,10 C0,15.5272656 4.47273437,20 10,20 C15.5272656,20 20,15.5272656 20,10 C20,4.47273437 15.5272656,0 10,0 Z M8.29091797,12.309082 C7.76363281,12.309082 7.34544922,12.2 6.81818359,12.090918 L5.34544922,12.8181836 L5.76363281,11.5636328 C4.70908203,10.8363672 4.09091797,9.89091797 4.09091797,8.72726563 C4.09091797,6.72726562 5.98181641,5.16363281 8.29091797,5.16363281 C10.3454492,5.16363281 12.1636328,6.41818359 12.5272656,8.10908203 C12.4,8.09091797 12.2545508,8.09091797 12.1272656,8.09091797 C10.1272656,8.09091797 8.56363281,9.58181641 8.56363281,11.4181836 C8.56363281,11.7272656 8.61818359,12.0181836 8.69091797,12.290918 C8.54544922,12.290918 8.41818359,12.309082 8.29091797,12.309082 Z M14.4363672,13.7818164 L14.7454492,14.8363672 L13.6,14.2 C13.1818359,14.309082 12.7636328,14.4181641 12.3454492,14.4181641 C10.3454492,14.4181641 8.78181641,13.0545508 8.78181641,11.3818359 C8.78181641,9.70912109 10.3454492,8.34544922 12.3454492,8.34544922 C14.2363672,8.34544922 15.909082,9.70908203 15.909082,11.3818164 C15.909082,12.309082 15.290918,13.1454492 14.4363672,13.7818164 L14.4363672,13.7818164 Z" id="Shape"></path>
            </g>
        </g>
    </g>
</svg>