<?xml version="1.0" encoding="UTF-8"?>
<svg width="12px" height="12px" viewBox="0 0 12 12" version="1.1" xmlns="http://www.w3.org/2000/svg" xmlns:xlink="http://www.w3.org/1999/xlink">
    <!-- Generator: Sketch 55.2 (78181) - https://sketchapp.com -->
    <title>ic_cell_arrow2_n@2x</title>
    <desc>Created with Sketch.</desc>
    <g id="HAPPay" stroke="none" stroke-width="1" fill="none" fill-rule="evenodd">
        <g id="付款详情-减免" transform="translate(-47.000000, -229.000000)" fill="#7CC372">
            <g id="编组" transform="translate(47.000000, 227.000000)">
                <g id="ic_cell_arrow2_n" transform="translate(0.000000, 2.000000)">
                    <path d="M11.5284002,3.66457747 C11.226178,2.95009225 10.7935684,2.30843887 10.2425713,1.75744174 C9.69157413,1.20644462 9.04992075,0.77382197 8.33543553,0.471599767 C7.59565028,0.158664706 6.80988036,0 5.9999935,0 C5.19015865,0 4.40441472,0.158664706 3.66462948,0.471599767 C2.95014426,0.77382197 2.30847787,1.20644462 1.75749375,1.75744174 C1.20647062,2.30845187 0.773860973,2.95010525 0.471612768,3.66457747 C0.158677707,4.40437572 0,5.19013264 0,6.0000195 C0,6.80989336 0.158664706,7.59563728 0.471586766,8.33546153 C0.773808969,9.04993375 1.20641861,9.69160014 1.75744174,10.2425973 C2.30843887,10.7935944 2.95006625,11.226204 3.66455147,11.5284262 C4.40433671,11.8413483 5.19010664,12 5.9999935,12 C6.80988036,12 7.59561128,11.8413483 8.33543553,11.5284262 C9.04992075,11.226204 9.69158713,10.7935944 10.2425713,10.2425973 C10.7935684,9.69157413 11.226178,9.04993375 11.5284002,8.33546153 C11.8413093,7.59566329 11.999987,6.80989336 11.999987,6.0000195 C11.999987,5.19013264 11.8413223,4.40437572 11.5284002,3.66457747 L11.5284002,3.66457747 Z M10.7590636,8.0103835 C10.4989388,8.62541075 10.12655,9.17775999 9.65215498,9.65214198 C9.17775999,10.126524 8.62538475,10.4989648 8.0103965,10.7590896 C7.37372251,11.0283802 6.69731734,11.1649301 5.9999545,11.1649301 C5.30264365,11.1649301 4.62629049,11.0283802 3.9896165,10.7590896 C3.37458925,10.4989648 2.82224001,10.12655 2.34785802,9.65214198 C1.87347603,9.17773398 1.50103521,8.62538475 1.24088437,8.0103835 C0.971593808,7.37370951 0.835043873,6.69733034 0.835043873,6.0000195 C0.835043873,5.30270866 0.971593808,4.62632949 1.24088437,3.98966851 C1.50103521,3.37465425 1.87345003,2.82227902 2.34785802,2.34789703 C2.82224001,1.87351504 3.37461525,1.50107421 3.9896165,1.24094938 C4.62629049,0.971658814 5.30264365,0.835121879 5.9999545,0.835121879 C6.69726534,0.835121879 7.37364451,0.971658814 8.01031849,1.24094938 C8.62533275,1.50107421 9.17769498,1.87351504 9.65207697,2.34789703 C10.126459,2.82227902 10.4988998,3.37465425 10.7590506,3.98966851 C11.0283412,4.62632949 11.1648781,5.30270866 11.1648781,6.0000195 C11.1648781,6.69733034 11.0283412,7.37370951 10.7590636,8.0103835 L10.7590636,8.0103835 Z M5.9463252,2.85110233 C5.69501508,2.85110233 5.49128876,3.05482864 5.49128876,3.30613877 L5.49128876,6.77775479 C5.49128876,7.02906491 5.69501508,7.23279123 5.9463252,7.23279123 C6.19763533,7.23279123 6.40136164,7.02906491 6.40136164,6.77775479 L6.40136164,3.30613877 C6.40136164,3.05482864 6.19763533,2.85110233 5.9463252,2.85110233 L5.9463252,2.85110233 Z M5.9425419,7.70419598 C5.69123177,7.70419598 5.48750546,7.90792229 5.48750546,8.15923242 L5.48750546,8.61750612 C5.48750546,8.86881624 5.69123177,9.07254256 5.9425419,9.07254256 C6.19385202,9.07254256 6.39757834,8.86881624 6.39757834,8.61750612 L6.39757834,8.15923242 C6.39757834,7.90792229 6.19385202,7.70419598 5.9425419,7.70419598 L5.9425419,7.70419598 Z" id="ic_cell_error_n"></path>
                </g>
            </g>
        </g>
    </g>
</svg>